<?xml version="1.0" encoding="UTF-8" standalone="no"?>
<!DOCTYPE svg PUBLIC "-//W3C//DTD SVG 1.1//EN"
 "http://www.w3.org/Graphics/SVG/1.1/DTD/svg11.dtd">
<!-- Generated by graphviz version 15.0.0 (20260523.1842)
 -->
<!-- Title: LeadGenie&#45;AI &#160;· &#160;V2 Production (ECS Fargate) Pages: 1 -->
<svg width="1667pt" height="2452pt"
 viewBox="0.00 0.00 1667.00 2452.00" xmlns="http://www.w3.org/2000/svg" xmlns:xlink="http://www.w3.org/1999/xlink">
<g id="graph0" class="graph" transform="scale(1 1) rotate(0) translate(64.8 2386.8)">
<title>LeadGenie&#45;AI &#160;· &#160;V2 Production (ECS Fargate)</title>
<polygon fill="#0f1117" stroke="none" points="-64.8,64.8 -64.8,-2386.8 1601.9,-2386.8 1601.9,64.8 -64.8,64.8"/>
<text xml:space="preserve" text-anchor="middle" x="768.55" y="-6" font-family="Sans-Serif" font-size="20.00" fill="#e2e8f0">LeadGenie&#45;AI &#160;· &#160;V2 Production (ECS Fargate)</text>
<g id="clust1" class="cluster">
<title>cluster_CDN / Edge</title>
<path fill="#1a1f2e" stroke="#aeb6be" d="M183.8,-1864C183.8,-1864 536.75,-1864 536.75,-1864 542.75,-1864 548.75,-1870 548.75,-1876 548.75,-1876 548.75,-2025 548.75,-2025 548.75,-2031 542.75,-2037 536.75,-2037 536.75,-2037 183.8,-2037 183.8,-2037 177.8,-2037 171.8,-2031 171.8,-2025 171.8,-2025 171.8,-1876 171.8,-1876 171.8,-1870 177.8,-1864 183.8,-1864"/>
<text xml:space="preserve" text-anchor="middle" x="212.05" y="-2021.6" font-family="Sans-Serif" font-size="12.00" fill="#94a3b8">CDN / Edge</text>
</g>
<g id="clust2" class="cluster">
<title>cluster_Ingress</title>
<path fill="#1a1f2e" stroke="#aeb6be" d="M183.8,-1438C183.8,-1438 276.6,-1438 276.6,-1438 282.6,-1438 288.6,-1444 288.6,-1450 288.6,-1450 288.6,-1841 288.6,-1841 288.6,-1847 282.6,-1853 276.6,-1853 276.6,-1853 183.8,-1853 183.8,-1853 177.8,-1853 171.8,-1847 171.8,-1841 171.8,-1841 171.8,-1450 171.8,-1450 171.8,-1444 177.8,-1438 183.8,-1438"/>
<text xml:space="preserve" text-anchor="middle" x="199.3" y="-1837.6" font-family="Sans-Serif" font-size="12.00" fill="#94a3b8">Ingress</text>
</g>
<g id="clust3" class="cluster">
<title>cluster_ECS Fargate — API Service &#160;(2 tasks, auto&#45;scale)</title>
<path fill="#1e2535" stroke="#aeb6be" d="M363.6,-1124C363.6,-1124 618.1,-1124 618.1,-1124 624.1,-1124 630.1,-1130 630.1,-1136 630.1,-1136 630.1,-1343 630.1,-1343 630.1,-1349 624.1,-1355 618.1,-1355 618.1,-1355 363.6,-1355 363.6,-1355 357.6,-1355 351.6,-1349 351.6,-1343 351.6,-1343 351.6,-1136 351.6,-1136 351.6,-1130 357.6,-1124 363.6,-1124"/>
<text xml:space="preserve" text-anchor="middle" x="490.85" y="-1339.6" font-family="Sans-Serif" font-size="12.00" fill="#93c5fd">ECS Fargate — API Service &#160;(2 tasks, auto&#45;scale)</text>
</g>
<g id="clust4" class="cluster">
<title>cluster_ECS Fargate — Worker Service &#160;(1–8 tasks, Spot)</title>
<path fill="#1a2820" stroke="#aeb6be" d="M705.1,-878C705.1,-878 977.7,-878 977.7,-878 983.7,-878 989.7,-884 989.7,-890 989.7,-890 989.7,-1126 989.7,-1126 989.7,-1132 983.7,-1138 977.7,-1138 977.7,-1138 705.1,-1138 705.1,-1138 699.1,-1138 693.1,-1132 693.1,-1126 693.1,-1126 693.1,-890 693.1,-890 693.1,-884 699.1,-878 705.1,-878"/>
<text xml:space="preserve" text-anchor="middle" x="833.48" y="-1122.6" font-family="Sans-Serif" font-size="12.00" fill="#86efac">ECS Fargate — Worker Service &#160;(1–8 tasks, Spot)</text>
</g>
<g id="clust5" class="cluster">
<title>cluster_Memory Stores</title>
<path fill="#1a1f2e" stroke="#aeb6be" d="M1064.7,-1427C1064.7,-1427 1157.5,-1427 1157.5,-1427 1163.5,-1427 1169.5,-1433 1169.5,-1439 1169.5,-1439 1169.5,-2302 1169.5,-2302 1169.5,-2308 1163.5,-2314 1157.5,-2314 1157.5,-2314 1064.7,-2314 1064.7,-2314 1058.7,-2314 1052.7,-2308 1052.7,-2302 1052.7,-2302 1052.7,-1439 1052.7,-1439 1052.7,-1433 1058.7,-1427 1064.7,-1427"/>
<text xml:space="preserve" text-anchor="middle" x="1100.82" y="-2298.6" font-family="Sans-Serif" font-size="12.00" fill="#94a3b8">Memory Stores</text>
</g>
<g id="clust6" class="cluster">
<title>cluster_Budget &amp; Alerts</title>
<path fill="#1e1515" stroke="#aeb6be" d="M1064.7,-37C1064.7,-37 1517.1,-37 1517.1,-37 1523.1,-37 1529.1,-43 1529.1,-49 1529.1,-49 1529.1,-441 1529.1,-441 1529.1,-447 1523.1,-453 1517.1,-453 1517.1,-453 1064.7,-453 1064.7,-453 1058.7,-453 1052.7,-447 1052.7,-441 1052.7,-441 1052.7,-49 1052.7,-49 1052.7,-43 1058.7,-37 1064.7,-37"/>
<text xml:space="preserve" text-anchor="middle" x="1101.95" y="-437.6" font-family="Sans-Serif" font-size="12.00" fill="#fca5a5">Budget &amp; Alerts</text>
</g>
<g id="clust7" class="cluster">
<title>cluster_Scheduling</title>
<path fill="#1a1f2e" stroke="#aeb6be" d="M705.1,-374C705.1,-374 977.7,-374 977.7,-374 983.7,-374 989.7,-380 989.7,-386 989.7,-386 989.7,-593 989.7,-593 989.7,-599 983.7,-605 977.7,-605 977.7,-605 705.1,-605 705.1,-605 699.1,-605 693.1,-599 693.1,-593 693.1,-593 693.1,-386 693.1,-386 693.1,-380 699.1,-374 705.1,-374"/>
<text xml:space="preserve" text-anchor="middle" x="731.48" y="-589.6" font-family="Sans-Serif" font-size="12.00" fill="#94a3b8">Scheduling</text>
</g>
<g id="clust8" class="cluster">
<title>cluster_WebSocket Handler</title>
<path fill="#1a1f2e" stroke="#aeb6be" d="M443.95,-1624C443.95,-1624 797.9,-1624 797.9,-1624 803.9,-1624 809.9,-1630 809.9,-1636 809.9,-1636 809.9,-1843 809.9,-1843 809.9,-1849 803.9,-1855 797.9,-1855 797.9,-1855 443.95,-1855 443.95,-1855 437.95,-1855 431.95,-1849 431.95,-1843 431.95,-1843 431.95,-1636 431.95,-1636 431.95,-1630 437.95,-1624 443.95,-1624"/>
<text xml:space="preserve" text-anchor="middle" x="493.58" y="-1839.6" font-family="Sans-Serif" font-size="12.00" fill="#94a3b8">WebSocket Handler</text>
</g>
<g id="clust9" class="cluster">
<title>cluster_Security &amp; Config</title>
<path fill="#1a1f2e" stroke="#aeb6be" d="M1064.7,-944C1064.7,-944 1157.5,-944 1157.5,-944 1163.5,-944 1169.5,-950 1169.5,-956 1169.5,-956 1169.5,-1404 1169.5,-1404 1169.5,-1410 1163.5,-1416 1157.5,-1416 1157.5,-1416 1064.7,-1416 1064.7,-1416 1058.7,-1416 1052.7,-1410 1052.7,-1404 1052.7,-1404 1052.7,-956 1052.7,-956 1052.7,-950 1058.7,-944 1064.7,-944"/>
<text xml:space="preserve" text-anchor="middle" x="1107.2" y="-1400.6" font-family="Sans-Serif" font-size="12.00" fill="#94a3b8">Security &amp; Config</text>
</g>
<g id="clust10" class="cluster">
<title>cluster_Observability</title>
<path fill="#1a1f2e" stroke="#aeb6be" d="M1064.7,-462C1064.7,-462 1157.5,-462 1157.5,-462 1163.5,-462 1169.5,-468 1169.5,-474 1169.5,-474 1169.5,-922 1169.5,-922 1169.5,-928 1163.5,-934 1157.5,-934 1157.5,-934 1064.7,-934 1064.7,-934 1058.7,-934 1052.7,-928 1052.7,-922 1052.7,-922 1052.7,-474 1052.7,-474 1052.7,-468 1058.7,-462 1064.7,-462"/>
<text xml:space="preserve" text-anchor="middle" x="1095.57" y="-918.6" font-family="Sans-Serif" font-size="12.00" fill="#94a3b8">Observability</text>
</g>
<!-- 31e274d903804d548edd7ae68aef78ec -->
<g id="node1" class="node">
<title>31e274d903804d548edd7ae68aef78ec</title>
<image xlink:href="/Users/abhishekmuni/Library/Python/3.9/lib/python/site-packages/resources/onprem/client/users.png" width="100.8px" height="100.8px" preserveAspectRatio="xMinYMin meet" x="9.9476e-14" y="-1777.4"/>
<text xml:space="preserve" text-anchor="middle" x="50.4" y="-1660.15" font-family="Sans-Serif" font-size="11.00" fill="#e2e8f0">Browser</text>
</g>
<!-- 5c63f61dec2d42c7a4a164db3fca273e -->
<g id="node2" class="node">
<title>5c63f61dec2d42c7a4a164db3fca273e</title>
<image xlink:href="/Users/abhishekmuni/Library/Python/3.9/lib/python/site-packages/resources/aws/network/cloudfront.png" width="100.8px" height="100.8px" preserveAspectRatio="xMinYMin meet" x="179.8" y="-1990.4"/>
<text xml:space="preserve" text-anchor="middle" x="230.2" y="-1873.15" font-family="Sans-Serif" font-size="11.00" fill="#e2e8f0">CloudFront</text>
</g>
<!-- 31e274d903804d548edd7ae68aef78ec&#45;&gt;5c63f61dec2d42c7a4a164db3fca273e -->
<g id="edge8" class="edge">
<title>31e274d903804d548edd7ae68aef78ec&#45;&gt;5c63f61dec2d42c7a4a164db3fca273e</title>
<path fill="none" stroke="#7b8894" d="M50.1,-1795.27C50.1,-1857.58 50.1,-1940 50.1,-1940 50.1,-1940 168.52,-1940 168.52,-1940"/>
<polygon fill="#7b8894" stroke="#7b8894" points="168.52,-1943.5 178.52,-1940 168.52,-1936.5 168.52,-1943.5"/>
</g>
<!-- a4a045bc073748be8c2b0591e87aa1b0 -->
<g id="node4" class="node">
<title>a4a045bc073748be8c2b0591e87aa1b0</title>
<image xlink:href="/Users/abhishekmuni/Library/Python/3.9/lib/python/site-packages/resources/aws/network/elb-application-load-balancer.png" width="100.8px" height="100.8px" preserveAspectRatio="xMinYMin meet" x="179.8" y="-1564.4"/>
<text xml:space="preserve" text-anchor="middle" x="230.2" y="-1447.15" font-family="Sans-Serif" font-size="11.00" fill="#e2e8f0">ALB</text>
</g>
<!-- 31e274d903804d548edd7ae68aef78ec&#45;&gt;a4a045bc073748be8c2b0591e87aa1b0 -->
<g id="edge9" class="edge">
<title>31e274d903804d548edd7ae68aef78ec&#45;&gt;a4a045bc073748be8c2b0591e87aa1b0</title>
<path fill="none" stroke="#7b8894" d="M50.1,-1658.73C50.1,-1596.42 50.1,-1514 50.1,-1514 50.1,-1514 168.52,-1514 168.52,-1514"/>
<polygon fill="#7b8894" stroke="#7b8894" points="168.52,-1517.5 178.52,-1514 168.52,-1510.5 168.52,-1517.5"/>
</g>
<!-- 404bae8e7b884723859402bef893d196 -->
<g id="node5" class="node">
<title>404bae8e7b884723859402bef893d196</title>
<image xlink:href="/Users/abhishekmuni/Library/Python/3.9/lib/python/site-packages/resources/aws/network/api-gateway.png" width="100.8px" height="100.8px" preserveAspectRatio="xMinYMin meet" x="179.8" y="-1777.4"/>
<text xml:space="preserve" text-anchor="middle" x="230.2" y="-1655.35" font-family="Sans-Serif" font-size="11.00" fill="#e2e8f0">API Gateway</text>
<text xml:space="preserve" text-anchor="middle" x="230.2" y="-1643.35" font-family="Sans-Serif" font-size="11.00" fill="#e2e8f0">WebSocket</text>
<text xml:space="preserve" text-anchor="middle" x="230.2" y="-1631.35" font-family="Sans-Serif" font-size="11.00" fill="#e2e8f0">(live agent feed)</text>
</g>
<!-- 31e274d903804d548edd7ae68aef78ec&#45;&gt;404bae8e7b884723859402bef893d196 -->
<g id="edge10" class="edge">
<title>31e274d903804d548edd7ae68aef78ec&#45;&gt;404bae8e7b884723859402bef893d196</title>
<path fill="none" stroke="#7b8894" d="M100.48,-1727C100.48,-1727 168.56,-1727 168.56,-1727"/>
<polygon fill="#7b8894" stroke="#7b8894" points="168.56,-1730.5 178.56,-1727 168.56,-1723.5 168.56,-1730.5"/>
</g>
<!-- 0f773b45cecb47eba0374705ef10a090 -->
<g id="node3" class="node">
<title>0f773b45cecb47eba0374705ef10a090</title>
<image xlink:href="/Users/abhishekmuni/Library/Python/3.9/lib/python/site-packages/resources/aws/storage/simple-storage-service-s3.png" width="100.8px" height="100.8px" preserveAspectRatio="xMinYMin meet" x="439.95" y="-1990.4"/>
<text xml:space="preserve" text-anchor="middle" x="490.35" y="-1873.15" font-family="Sans-Serif" font-size="11.00" fill="#e2e8f0">S3 &#160;React SPA</text>
</g>
<!-- 5c63f61dec2d42c7a4a164db3fca273e&#45;&gt;0f773b45cecb47eba0374705ef10a090 -->
<g id="edge1" class="edge">
<title>5c63f61dec2d42c7a4a164db3fca273e&#45;&gt;0f773b45cecb47eba0374705ef10a090</title>
<path fill="none" stroke="#7b8894" d="M280.36,-1940C280.36,-1940 428.83,-1940 428.83,-1940"/>
<polygon fill="#7b8894" stroke="#7b8894" points="428.83,-1943.5 438.83,-1940 428.83,-1936.5 428.83,-1943.5"/>
</g>
<!-- 94233be886e844aab94beaa73c245e23 -->
<g id="node6" class="node">
<title>94233be886e844aab94beaa73c245e23</title>
<image xlink:href="/Users/abhishekmuni/Library/Python/3.9/lib/python/site-packages/resources/aws/compute/elastic-container-service.png" width="100.8px" height="100.8px" preserveAspectRatio="xMinYMin meet" x="439.95" y="-1279.4"/>
<text xml:space="preserve" text-anchor="middle" x="490.35" y="-1157.35" font-family="Sans-Serif" font-size="11.00" fill="#e2e8f0">Fargate</text>
<text xml:space="preserve" text-anchor="middle" x="490.35" y="-1145.35" font-family="Sans-Serif" font-size="11.00" fill="#e2e8f0">FastAPI</text>
<text xml:space="preserve" text-anchor="middle" x="490.35" y="-1133.35" font-family="Sans-Serif" font-size="11.00" fill="#e2e8f0">0.5 vCPU · 1 GB</text>
</g>
<!-- a4a045bc073748be8c2b0591e87aa1b0&#45;&gt;94233be886e844aab94beaa73c245e23 -->
<g id="edge12" class="edge">
<title>a4a045bc073748be8c2b0591e87aa1b0&#45;&gt;94233be886e844aab94beaa73c245e23</title>
<path fill="none" stroke="#7b8894" d="M280.53,-1514C351.68,-1514 473.1,-1514 473.1,-1514 473.1,-1514 473.1,-1337.4 473.1,-1337.4"/>
<polygon fill="#7b8894" stroke="#7b8894" points="476.6,-1337.4 473.1,-1327.4 469.6,-1337.4 476.6,-1337.4"/>
</g>
<!-- b850196319db49fb92fae9f781f66902 -->
<g id="node18" class="node">
<title>b850196319db49fb92fae9f781f66902</title>
<image xlink:href="/Users/abhishekmuni/Library/Python/3.9/lib/python/site-packages/resources/aws/compute/lambda.png" width="100.8px" height="100.8px" preserveAspectRatio="xMinYMin meet" x="439.95" y="-1778.4"/>
<text xml:space="preserve" text-anchor="middle" x="490.35" y="-1658.75" font-family="Sans-Serif" font-size="11.00" fill="#e2e8f0">Lambda</text>
<text xml:space="preserve" text-anchor="middle" x="490.35" y="-1646.75" font-family="Sans-Serif" font-size="11.00" fill="#e2e8f0">WS connect/msg</text>
</g>
<!-- 404bae8e7b884723859402bef893d196&#45;&gt;b850196319db49fb92fae9f781f66902 -->
<g id="edge11" class="edge">
<title>404bae8e7b884723859402bef893d196&#45;&gt;b850196319db49fb92fae9f781f66902</title>
<path fill="none" stroke="#7b8894" d="M280.36,-1728C280.36,-1728 428.83,-1728 428.83,-1728"/>
<polygon fill="#7b8894" stroke="#7b8894" points="428.83,-1731.5 438.83,-1728 428.83,-1724.5 428.83,-1731.5"/>
</g>
<!-- 02ee5f649da74ee3af1c12b9cfa9ec50 -->
<g id="node7" class="node">
<title>02ee5f649da74ee3af1c12b9cfa9ec50</title>
<image xlink:href="/Users/abhishekmuni/Library/Python/3.9/lib/python/site-packages/resources/aws/integration/simple-queue-service-sqs.png" width="100.8px" height="100.8px" preserveAspectRatio="xMinYMin meet" x="701.1" y="-1062.4"/>
<text xml:space="preserve" text-anchor="middle" x="751.5" y="-942.75" font-family="Sans-Serif" font-size="11.00" fill="#e2e8f0">SQS</text>
<text xml:space="preserve" text-anchor="middle" x="751.5" y="-930.75" font-family="Sans-Serif" font-size="11.00" fill="#e2e8f0">Agent Job Queue</text>
</g>
<!-- 94233be886e844aab94beaa73c245e23&#45;&gt;02ee5f649da74ee3af1c12b9cfa9ec50 -->
<g id="edge13" class="edge">
<title>94233be886e844aab94beaa73c245e23&#45;&gt;02ee5f649da74ee3af1c12b9cfa9ec50</title>
<path fill="none" stroke="#7b8894" d="M540.63,-1148.1C616.4,-1148.1 751.1,-1148.1 751.1,-1148.1 751.1,-1148.1 751.1,-1106.21 751.1,-1106.21"/>
<polygon fill="#7b8894" stroke="#7b8894" points="754.6,-1106.21 751.1,-1096.21 747.6,-1106.21 754.6,-1106.21"/>
</g>
<!-- 17bbc7e1f38942be95792c68f0ea09c6 -->
<g id="node9" class="node">
<title>17bbc7e1f38942be95792c68f0ea09c6</title>
<image xlink:href="/Users/abhishekmuni/Library/Python/3.9/lib/python/site-packages/resources/aws/database/rds.png" width="100.8px" height="100.8px" preserveAspectRatio="xMinYMin meet" x="1060.7" y="-1625.4"/>
<text xml:space="preserve" text-anchor="middle" x="1111.1" y="-1496.15" font-family="Sans-Serif" font-size="11.00" fill="#e2e8f0">RDS Postgres</text>
<text xml:space="preserve" text-anchor="middle" x="1111.1" y="-1484.15" font-family="Sans-Serif" font-size="11.00" fill="#e2e8f0">t3.medium Multi&#45;AZ</text>
<text xml:space="preserve" text-anchor="middle" x="1111.1" y="-1472.15" font-family="Sans-Serif" font-size="11.00" fill="#e2e8f0">+ pgvector</text>
<text xml:space="preserve" text-anchor="middle" x="1111.1" y="-1460.15" font-family="Sans-Serif" font-size="11.00" fill="#e2e8f0">(episodic · semantic</text>
<text xml:space="preserve" text-anchor="middle" x="1111.1" y="-1448.15" font-family="Sans-Serif" font-size="11.00" fill="#e2e8f0">lead profile · outreach</text>
<text xml:space="preserve" text-anchor="middle" x="1111.1" y="-1436.15" font-family="Sans-Serif" font-size="11.00" fill="#e2e8f0">FinOps reporting)</text>
</g>
<!-- 94233be886e844aab94beaa73c245e23&#45;&gt;17bbc7e1f38942be95792c68f0ea09c6 -->
<g id="edge14" class="edge">
<title>94233be886e844aab94beaa73c245e23&#45;&gt;17bbc7e1f38942be95792c68f0ea09c6</title>
<path fill="none" stroke="#6366f1" d="M507.1,-1326.12C507.1,-1382.28 507.1,-1441.93 507.1,-1441.93 507.1,-1441.93 1049.39,-1441.93 1049.39,-1441.93"/>
<polygon fill="#6366f1" stroke="#6366f1" points="1049.39,-1445.43 1059.39,-1441.93 1049.39,-1438.43 1049.39,-1445.43"/>
</g>
<!-- 858decaa40554b2eb4697fce0e4584b5 -->
<g id="node10" class="node">
<title>858decaa40554b2eb4697fce0e4584b5</title>
<image xlink:href="/Users/abhishekmuni/Library/Python/3.9/lib/python/site-packages/resources/aws/database/elasticache.png" width="100.8px" height="100.8px" preserveAspectRatio="xMinYMin meet" x="1060.7" y="-2209.4"/>
<text xml:space="preserve" text-anchor="middle" x="1111.1" y="-2082.55" font-family="Sans-Serif" font-size="11.00" fill="#e2e8f0">ElastiCache Redis</text>
<text xml:space="preserve" text-anchor="middle" x="1111.1" y="-2070.55" font-family="Sans-Serif" font-size="11.00" fill="#e2e8f0">t3.small cluster</text>
<text xml:space="preserve" text-anchor="middle" x="1111.1" y="-2058.55" font-family="Sans-Serif" font-size="11.00" fill="#e2e8f0">(working memory</text>
<text xml:space="preserve" text-anchor="middle" x="1111.1" y="-2046.55" font-family="Sans-Serif" font-size="11.00" fill="#e2e8f0">semantic cache</text>
<text xml:space="preserve" text-anchor="middle" x="1111.1" y="-2034.55" font-family="Sans-Serif" font-size="11.00" fill="#e2e8f0">vector search)</text>
</g>
<!-- 94233be886e844aab94beaa73c245e23&#45;&gt;858decaa40554b2eb4697fce0e4584b5 -->
<g id="edge15" class="edge">
<title>94233be886e844aab94beaa73c245e23&#45;&gt;858decaa40554b2eb4697fce0e4584b5</title>
<path fill="none" stroke="#6366f1" d="M540.55,-1285.75C634.64,-1285.75 828.1,-1285.75 828.1,-1285.75 828.1,-1285.75 828.1,-2201 828.1,-2201 828.1,-2201 1049.32,-2201 1049.32,-2201"/>
<polygon fill="#6366f1" stroke="#6366f1" points="1049.32,-2204.5 1059.32,-2201 1049.32,-2197.5 1049.32,-2204.5"/>
</g>
<!-- 0bcde21a8791476ca39bbbd70595fb03 -->
<g id="node11" class="node">
<title>0bcde21a8791476ca39bbbd70595fb03</title>
<image xlink:href="/Users/abhishekmuni/Library/Python/3.9/lib/python/site-packages/resources/aws/storage/simple-storage-service-s3.png" width="100.8px" height="100.8px" preserveAspectRatio="xMinYMin meet" x="1060.7" y="-1924.4"/>
<text xml:space="preserve" text-anchor="middle" x="1111.1" y="-1799.95" font-family="Sans-Serif" font-size="11.00" fill="#e2e8f0">S3</text>
<text xml:space="preserve" text-anchor="middle" x="1111.1" y="-1787.95" font-family="Sans-Serif" font-size="11.00" fill="#e2e8f0">Templates</text>
<text xml:space="preserve" text-anchor="middle" x="1111.1" y="-1775.95" font-family="Sans-Serif" font-size="11.00" fill="#e2e8f0">&amp; KB docs</text>
<text xml:space="preserve" text-anchor="middle" x="1111.1" y="-1763.95" font-family="Sans-Serif" font-size="11.00" fill="#e2e8f0">(procedural mem)</text>
</g>
<!-- 94233be886e844aab94beaa73c245e23&#45;&gt;0bcde21a8791476ca39bbbd70595fb03 -->
<g id="edge16" class="edge">
<title>94233be886e844aab94beaa73c245e23&#45;&gt;0bcde21a8791476ca39bbbd70595fb03</title>
<path fill="none" stroke="#6366f1" d="M540.55,-1245.3C640.33,-1245.3 854.1,-1245.3 854.1,-1245.3 854.1,-1245.3 854.1,-1804.93 854.1,-1804.93 854.1,-1804.93 1049.42,-1804.93 1049.42,-1804.93"/>
<polygon fill="#6366f1" stroke="#6366f1" points="1049.42,-1808.43 1059.42,-1804.93 1049.42,-1801.43 1049.42,-1808.43"/>
</g>
<!-- 0331584673574dae8365ac70873f188e -->
<g id="node15" class="node">
<title>0331584673574dae8365ac70873f188e</title>
<image xlink:href="/Users/abhishekmuni/Library/Python/3.9/lib/python/site-packages/resources/aws/database/dynamodb.png" width="100.8px" height="100.8px" preserveAspectRatio="xMinYMin meet" x="1060.7" y="-361.4"/>
<text xml:space="preserve" text-anchor="middle" x="1111.1" y="-236.95" font-family="Sans-Serif" font-size="11.00" fill="#e2e8f0">DynamoDB</text>
<text xml:space="preserve" text-anchor="middle" x="1111.1" y="-224.95" font-family="Sans-Serif" font-size="11.00" fill="#e2e8f0">(token budget</text>
<text xml:space="preserve" text-anchor="middle" x="1111.1" y="-212.95" font-family="Sans-Serif" font-size="11.00" fill="#e2e8f0">atomic counters</text>
<text xml:space="preserve" text-anchor="middle" x="1111.1" y="-200.95" font-family="Sans-Serif" font-size="11.00" fill="#e2e8f0">day / month TTL)</text>
</g>
<!-- 94233be886e844aab94beaa73c245e23&#45;&gt;0331584673574dae8365ac70873f188e -->
<g id="edge20" class="edge">
<title>94233be886e844aab94beaa73c245e23&#45;&gt;0331584673574dae8365ac70873f188e</title>
<path fill="none" stroke="#f87171" stroke-dasharray="5,2" d="M460.1,-1132.11C460.1,-892.35 460.1,-290.6 460.1,-290.6 460.1,-290.6 1049.32,-290.6 1049.32,-290.6"/>
<polygon fill="#f87171" stroke="#f87171" points="1049.32,-294.1 1059.32,-290.6 1049.32,-287.1 1049.32,-294.1"/>
</g>
<!-- 721bf89c8777437eb4d170484f3cfcc4 -->
<g id="node20" class="node">
<title>721bf89c8777437eb4d170484f3cfcc4</title>
<image xlink:href="/Users/abhishekmuni/Library/Python/3.9/lib/python/site-packages/resources/aws/security/secrets-manager.png" width="100.8px" height="100.8px" preserveAspectRatio="xMinYMin meet" x="1060.7" y="-1085.4"/>
<text xml:space="preserve" text-anchor="middle" x="1111.1" y="-965.75" font-family="Sans-Serif" font-size="11.00" fill="#e2e8f0">Secrets Manager</text>
<text xml:space="preserve" text-anchor="middle" x="1111.1" y="-953.75" font-family="Sans-Serif" font-size="11.00" fill="#e2e8f0">API keys</text>
</g>
<!-- 94233be886e844aab94beaa73c245e23&#45;&gt;721bf89c8777437eb4d170484f3cfcc4 -->
<g id="edge23" class="edge">
<title>94233be886e844aab94beaa73c245e23&#45;&gt;721bf89c8777437eb4d170484f3cfcc4</title>
<path fill="none" stroke="#94a3b8" stroke-dasharray="1,5" d="M520.1,-1131.97C520.1,-1121.02 520.1,-1113.7 520.1,-1113.7 520.1,-1113.7 1049.2,-1113.7 1049.2,-1113.7"/>
<polygon fill="#94a3b8" stroke="#94a3b8" points="1049.2,-1117.2 1059.2,-1113.7 1049.2,-1110.2 1049.2,-1117.2"/>
</g>
<!-- c985e33c00ee48b68ae1f98903b8095d -->
<g id="node21" class="node">
<title>c985e33c00ee48b68ae1f98903b8095d</title>
<image xlink:href="/Users/abhishekmuni/Library/Python/3.9/lib/python/site-packages/resources/aws/management/systems-manager-parameter-store.png" width="100.8px" height="100.8px" preserveAspectRatio="xMinYMin meet" x="1060.7" y="-1326.4"/>
<text xml:space="preserve" text-anchor="middle" x="1111.1" y="-1201.95" font-family="Sans-Serif" font-size="11.00" fill="#e2e8f0">SSM Param Store</text>
<text xml:space="preserve" text-anchor="middle" x="1111.1" y="-1189.95" font-family="Sans-Serif" font-size="11.00" fill="#e2e8f0">model names</text>
<text xml:space="preserve" text-anchor="middle" x="1111.1" y="-1177.95" font-family="Sans-Serif" font-size="11.00" fill="#e2e8f0">budget limits</text>
<text xml:space="preserve" text-anchor="middle" x="1111.1" y="-1165.95" font-family="Sans-Serif" font-size="11.00" fill="#e2e8f0">cache TTLs</text>
</g>
<!-- 94233be886e844aab94beaa73c245e23&#45;&gt;c985e33c00ee48b68ae1f98903b8095d -->
<g id="edge25" class="edge">
<title>94233be886e844aab94beaa73c245e23&#45;&gt;c985e33c00ee48b68ae1f98903b8095d</title>
<path fill="none" stroke="#94a3b8" stroke-dasharray="1,5" d="M540.62,-1204.85C540.62,-1204.85 1049.28,-1204.85 1049.28,-1204.85"/>
<polygon fill="#94a3b8" stroke="#94a3b8" points="1049.28,-1208.35 1059.28,-1204.85 1049.28,-1201.35 1049.28,-1208.35"/>
</g>
<!-- 4a9f12de5cd7410dafdbd2f151347063 -->
<g id="node22" class="node">
<title>4a9f12de5cd7410dafdbd2f151347063</title>
<image xlink:href="/Users/abhishekmuni/Library/Python/3.9/lib/python/site-packages/resources/aws/management/cloudwatch.png" width="100.8px" height="100.8px" preserveAspectRatio="xMinYMin meet" x="1060.7" y="-617.4"/>
<text xml:space="preserve" text-anchor="middle" x="1111.1" y="-495.35" font-family="Sans-Serif" font-size="11.00" fill="#e2e8f0">CloudWatch</text>
<text xml:space="preserve" text-anchor="middle" x="1111.1" y="-483.35" font-family="Sans-Serif" font-size="11.00" fill="#e2e8f0">Logs · Metrics</text>
<text xml:space="preserve" text-anchor="middle" x="1111.1" y="-471.35" font-family="Sans-Serif" font-size="11.00" fill="#e2e8f0">custom namespace</text>
</g>
<!-- 94233be886e844aab94beaa73c245e23&#45;&gt;4a9f12de5cd7410dafdbd2f151347063 -->
<g id="edge26" class="edge">
<title>94233be886e844aab94beaa73c245e23&#45;&gt;4a9f12de5cd7410dafdbd2f151347063</title>
<path fill="none" stroke="#475569" stroke-dasharray="1,5" d="M480.1,-1131.93C480.1,-956.69 480.1,-605.53 480.1,-605.53 480.1,-605.53 1049.28,-605.53 1049.28,-605.53"/>
<polygon fill="#475569" stroke="#475569" points="1049.28,-609.03 1059.28,-605.53 1049.28,-602.03 1049.28,-609.03"/>
</g>
<!-- a41014ac899346beb587af588ee034ac -->
<g id="node23" class="node">
<title>a41014ac899346beb587af588ee034ac</title>
<image xlink:href="/Users/abhishekmuni/Library/Python/3.9/lib/python/site-packages/resources/aws/devtools/x-ray.png" width="100.8px" height="100.8px" preserveAspectRatio="xMinYMin meet" x="1060.7" y="-858.4"/>
<text xml:space="preserve" text-anchor="middle" x="1111.1" y="-736.35" font-family="Sans-Serif" font-size="11.00" fill="#e2e8f0">X&#45;Ray</text>
<text xml:space="preserve" text-anchor="middle" x="1111.1" y="-724.35" font-family="Sans-Serif" font-size="11.00" fill="#e2e8f0">distributed</text>
<text xml:space="preserve" text-anchor="middle" x="1111.1" y="-712.35" font-family="Sans-Serif" font-size="11.00" fill="#e2e8f0">tracing</text>
</g>
<!-- 94233be886e844aab94beaa73c245e23&#45;&gt;a41014ac899346beb587af588ee034ac -->
<g id="edge28" class="edge">
<title>94233be886e844aab94beaa73c245e23&#45;&gt;a41014ac899346beb587af588ee034ac</title>
<path fill="none" stroke="#475569" stroke-dasharray="1,5" d="M500.1,-1131.87C500.1,-1004.93 500.1,-798.6 500.1,-798.6 500.1,-798.6 1049.33,-798.6 1049.33,-798.6"/>
<polygon fill="#475569" stroke="#475569" points="1049.33,-802.1 1059.33,-798.6 1049.33,-795.1 1049.33,-802.1"/>
</g>
<!-- 229898f70a54476a87c7479eccf935bf -->
<g id="node8" class="node">
<title>229898f70a54476a87c7479eccf935bf</title>
<image xlink:href="/Users/abhishekmuni/Library/Python/3.9/lib/python/site-packages/resources/aws/compute/elastic-container-service.png" width="100.8px" height="100.8px" preserveAspectRatio="xMinYMin meet" x="880.9" y="-1048.4"/>
<text xml:space="preserve" text-anchor="middle" x="931.3" y="-923.95" font-family="Sans-Serif" font-size="11.00" fill="#e2e8f0">Fargate Workers</text>
<text xml:space="preserve" text-anchor="middle" x="931.3" y="-911.95" font-family="Sans-Serif" font-size="11.00" fill="#e2e8f0">research · outreach</text>
<text xml:space="preserve" text-anchor="middle" x="931.3" y="-899.95" font-family="Sans-Serif" font-size="11.00" fill="#e2e8f0">governance · intent</text>
<text xml:space="preserve" text-anchor="middle" x="931.3" y="-887.95" font-family="Sans-Serif" font-size="11.00" fill="#e2e8f0">1 vCPU · 2 GB</text>
</g>
<!-- 02ee5f649da74ee3af1c12b9cfa9ec50&#45;&gt;229898f70a54476a87c7479eccf935bf -->
<g id="edge2" class="edge">
<title>02ee5f649da74ee3af1c12b9cfa9ec50&#45;&gt;229898f70a54476a87c7479eccf935bf</title>
<path fill="none" stroke="#7b8894" d="M801.58,-1012C801.58,-1012 869.66,-1012 869.66,-1012"/>
<polygon fill="#7b8894" stroke="#7b8894" points="869.66,-1015.5 879.66,-1012 869.66,-1008.5 869.66,-1015.5"/>
</g>
<!-- 229898f70a54476a87c7479eccf935bf&#45;&gt;17bbc7e1f38942be95792c68f0ea09c6 -->
<g id="edge17" class="edge">
<title>229898f70a54476a87c7479eccf935bf&#45;&gt;17bbc7e1f38942be95792c68f0ea09c6</title>
<path fill="none" stroke="#22c55e" d="M956.1,-1109.38C956.1,-1239.81 956.1,-1438.27 956.1,-1438.27 956.1,-1438.27 1049.26,-1438.27 1049.26,-1438.27"/>
<polygon fill="#22c55e" stroke="#22c55e" points="1049.26,-1441.77 1059.26,-1438.27 1049.26,-1434.77 1049.26,-1441.77"/>
</g>
<!-- 229898f70a54476a87c7479eccf935bf&#45;&gt;858decaa40554b2eb4697fce0e4584b5 -->
<g id="edge18" class="edge">
<title>229898f70a54476a87c7479eccf935bf&#45;&gt;858decaa40554b2eb4697fce0e4584b5</title>
<path fill="none" stroke="#22c55e" d="M906.1,-1109.38C906.1,-1392.42 906.1,-2117 906.1,-2117 906.1,-2117 1049.44,-2117 1049.44,-2117"/>
<polygon fill="#22c55e" stroke="#22c55e" points="1049.44,-2120.5 1059.44,-2117 1049.44,-2113.5 1049.44,-2120.5"/>
</g>
<!-- 229898f70a54476a87c7479eccf935bf&#45;&gt;0bcde21a8791476ca39bbbd70595fb03 -->
<g id="edge19" class="edge">
<title>229898f70a54476a87c7479eccf935bf&#45;&gt;0bcde21a8791476ca39bbbd70595fb03</title>
<path fill="none" stroke="#22c55e" d="M931.1,-1109.32C931.1,-1326.06 931.1,-1783.67 931.1,-1783.67 931.1,-1783.67 1049.45,-1783.67 1049.45,-1783.67"/>
<polygon fill="#22c55e" stroke="#22c55e" points="1049.45,-1787.17 1059.45,-1783.67 1049.45,-1780.17 1049.45,-1787.17"/>
</g>
<!-- 229898f70a54476a87c7479eccf935bf&#45;&gt;0331584673574dae8365ac70873f188e -->
<g id="edge21" class="edge">
<title>229898f70a54476a87c7479eccf935bf&#45;&gt;0331584673574dae8365ac70873f188e</title>
<path fill="none" stroke="#f87171" stroke-dasharray="5,2" d="M981.45,-892.67C1002.02,-892.67 1021.1,-892.67 1021.1,-892.67 1021.1,-892.67 1021.1,-409 1021.1,-409 1021.1,-409 1049.32,-409 1049.32,-409"/>
<polygon fill="#f87171" stroke="#f87171" points="1049.32,-412.5 1059.32,-409 1049.32,-405.5 1049.32,-412.5"/>
</g>
<!-- 229898f70a54476a87c7479eccf935bf&#45;&gt;721bf89c8777437eb4d170484f3cfcc4 -->
<g id="edge24" class="edge">
<title>229898f70a54476a87c7479eccf935bf&#45;&gt;721bf89c8777437eb4d170484f3cfcc4</title>
<path fill="none" stroke="#94a3b8" stroke-dasharray="1,5" d="M981.38,-1030.9C981.38,-1030.9 1049.46,-1030.9 1049.46,-1030.9"/>
<polygon fill="#94a3b8" stroke="#94a3b8" points="1049.46,-1034.4 1059.46,-1030.9 1049.46,-1027.4 1049.46,-1034.4"/>
</g>
<!-- 229898f70a54476a87c7479eccf935bf&#45;&gt;4a9f12de5cd7410dafdbd2f151347063 -->
<g id="edge27" class="edge">
<title>229898f70a54476a87c7479eccf935bf&#45;&gt;4a9f12de5cd7410dafdbd2f151347063</title>
<path fill="none" stroke="#475569" stroke-dasharray="1,5" d="M931.1,-886.58C931.1,-779.84 931.1,-634.87 931.1,-634.87 931.1,-634.87 1049.45,-634.87 1049.45,-634.87"/>
<polygon fill="#475569" stroke="#475569" points="1049.45,-638.37 1059.45,-634.87 1049.45,-631.37 1049.45,-638.37"/>
</g>
<!-- 229898f70a54476a87c7479eccf935bf&#45;&gt;a41014ac899346beb587af588ee034ac -->
<g id="edge29" class="edge">
<title>229898f70a54476a87c7479eccf935bf&#45;&gt;a41014ac899346beb587af588ee034ac</title>
<path fill="none" stroke="#475569" stroke-dasharray="1,5" d="M981.38,-898.93C981.38,-898.93 1049.46,-898.93 1049.46,-898.93"/>
<polygon fill="#475569" stroke="#475569" points="1049.46,-902.43 1059.46,-898.93 1049.46,-895.43 1049.46,-902.43"/>
</g>
<!-- 98f722891ed042e0af1492f4329b87db -->
<g id="node12" class="node">
<title>98f722891ed042e0af1492f4329b87db</title>
<image xlink:href="/Users/abhishekmuni/Library/Python/3.9/lib/python/site-packages/resources/aws/integration/simple-notification-service-sns.png" width="100.8px" height="100.8px" preserveAspectRatio="xMinYMin meet" x="1240.5" y="-361.4"/>
<text xml:space="preserve" text-anchor="middle" x="1290.9" y="-241.75" font-family="Sans-Serif" font-size="11.00" fill="#e2e8f0">SNS</text>
<text xml:space="preserve" text-anchor="middle" x="1290.9" y="-229.75" font-family="Sans-Serif" font-size="11.00" fill="#e2e8f0">Alert Topic</text>
</g>
<!-- bafeb22155a04205a4076d195fdefcd4 -->
<g id="node13" class="node">
<title>bafeb22155a04205a4076d195fdefcd4</title>
<image xlink:href="/Users/abhishekmuni/Library/Python/3.9/lib/python/site-packages/resources/aws/engagement/simple-email-service-ses.png" width="100.8px" height="100.8px" preserveAspectRatio="xMinYMin meet" x="1420.3" y="-178.4"/>
<text xml:space="preserve" text-anchor="middle" x="1470.7" y="-58.75" font-family="Sans-Serif" font-size="11.00" fill="#e2e8f0">SES</text>
<text xml:space="preserve" text-anchor="middle" x="1470.7" y="-46.75" font-family="Sans-Serif" font-size="11.00" fill="#e2e8f0">Email Alerts</text>
</g>
<!-- 98f722891ed042e0af1492f4329b87db&#45;&gt;bafeb22155a04205a4076d195fdefcd4 -->
<g id="edge3" class="edge">
<title>98f722891ed042e0af1492f4329b87db&#45;&gt;bafeb22155a04205a4076d195fdefcd4</title>
<path fill="none" stroke="#7b8894" d="M1291.1,-228.34C1291.1,-214.81 1291.1,-205.1 1291.1,-205.1 1291.1,-205.1 1409.16,-205.1 1409.16,-205.1"/>
<polygon fill="#7b8894" stroke="#7b8894" points="1409.16,-208.6 1419.16,-205.1 1409.16,-201.6 1409.16,-208.6"/>
</g>
<!-- c17add1d86f14387b197180ee36f7a39 -->
<g id="node14" class="node">
<title>c17add1d86f14387b197180ee36f7a39</title>
<image xlink:href="/Users/abhishekmuni/Library/Python/3.9/lib/python/site-packages/resources/aws/compute/lambda.png" width="100.8px" height="100.8px" preserveAspectRatio="xMinYMin meet" x="1420.3" y="-391.4"/>
<text xml:space="preserve" text-anchor="middle" x="1470.7" y="-271.75" font-family="Sans-Serif" font-size="11.00" fill="#e2e8f0">Lambda</text>
<text xml:space="preserve" text-anchor="middle" x="1470.7" y="-259.75" font-family="Sans-Serif" font-size="11.00" fill="#e2e8f0">Slack / Webhook</text>
</g>
<!-- 98f722891ed042e0af1492f4329b87db&#45;&gt;c17add1d86f14387b197180ee36f7a39 -->
<g id="edge4" class="edge">
<title>98f722891ed042e0af1492f4329b87db&#45;&gt;c17add1d86f14387b197180ee36f7a39</title>
<path fill="none" stroke="#7b8894" d="M1340.98,-326C1340.98,-326 1409.06,-326 1409.06,-326"/>
<polygon fill="#7b8894" stroke="#7b8894" points="1409.06,-329.5 1419.06,-326 1409.06,-322.5 1409.06,-329.5"/>
</g>
<!-- 0331584673574dae8365ac70873f188e&#45;&gt;98f722891ed042e0af1492f4329b87db -->
<g id="edge22" class="edge">
<title>0331584673574dae8365ac70873f188e&#45;&gt;98f722891ed042e0af1492f4329b87db</title>
<path fill="none" stroke="#f87171" stroke-dasharray="5,2" d="M1161.18,-311C1161.18,-311 1229.26,-311 1229.26,-311"/>
<polygon fill="#f87171" stroke="#f87171" points="1229.26,-314.5 1239.26,-311 1229.26,-307.5 1229.26,-314.5"/>
</g>
<!-- 447102dbf7c748749a52d4ee567583ef -->
<g id="node16" class="node">
<title>447102dbf7c748749a52d4ee567583ef</title>
<image xlink:href="/Users/abhishekmuni/Library/Python/3.9/lib/python/site-packages/resources/aws/integration/eventbridge.png" width="100.8px" height="100.8px" preserveAspectRatio="xMinYMin meet" x="701.1" y="-529.4"/>
<text xml:space="preserve" text-anchor="middle" x="751.5" y="-409.75" font-family="Sans-Serif" font-size="11.00" fill="#e2e8f0">EventBridge</text>
<text xml:space="preserve" text-anchor="middle" x="751.5" y="-397.75" font-family="Sans-Serif" font-size="11.00" fill="#e2e8f0">daily 00:00 UTC</text>
</g>
<!-- 7e22e1c9e8d24340bbcf82d7993f01a4 -->
<g id="node17" class="node">
<title>7e22e1c9e8d24340bbcf82d7993f01a4</title>
<image xlink:href="/Users/abhishekmuni/Library/Python/3.9/lib/python/site-packages/resources/aws/compute/lambda.png" width="100.8px" height="100.8px" preserveAspectRatio="xMinYMin meet" x="880.9" y="-529.4"/>
<text xml:space="preserve" text-anchor="middle" x="931.3" y="-407.35" font-family="Sans-Serif" font-size="11.00" fill="#e2e8f0">Lambda</text>
<text xml:space="preserve" text-anchor="middle" x="931.3" y="-395.35" font-family="Sans-Serif" font-size="11.00" fill="#e2e8f0">Budget Reset</text>
<text xml:space="preserve" text-anchor="middle" x="931.3" y="-383.35" font-family="Sans-Serif" font-size="11.00" fill="#e2e8f0">+ daily summary</text>
</g>
<!-- 447102dbf7c748749a52d4ee567583ef&#45;&gt;7e22e1c9e8d24340bbcf82d7993f01a4 -->
<g id="edge5" class="edge">
<title>447102dbf7c748749a52d4ee567583ef&#45;&gt;7e22e1c9e8d24340bbcf82d7993f01a4</title>
<path fill="none" stroke="#7b8894" d="M801.58,-479C801.58,-479 869.66,-479 869.66,-479"/>
<polygon fill="#7b8894" stroke="#7b8894" points="869.66,-482.5 879.66,-479 869.66,-475.5 869.66,-482.5"/>
</g>
<!-- 7e22e1c9e8d24340bbcf82d7993f01a4&#45;&gt;0331584673574dae8365ac70873f188e -->
<g id="edge6" class="edge">
<title>7e22e1c9e8d24340bbcf82d7993f01a4&#45;&gt;0331584673574dae8365ac70873f188e</title>
<path fill="none" stroke="#7b8894" d="M981.38,-395.4C981.38,-395.4 1049.46,-395.4 1049.46,-395.4"/>
<polygon fill="#7b8894" stroke="#7b8894" points="1049.46,-398.9 1059.46,-395.4 1049.46,-391.9 1049.46,-398.9"/>
</g>
<!-- 8ef4418af32248b7b20e877088b10b81 -->
<g id="node19" class="node">
<title>8ef4418af32248b7b20e877088b10b81</title>
<image xlink:href="/Users/abhishekmuni/Library/Python/3.9/lib/python/site-packages/resources/aws/database/dynamodb.png" width="100.8px" height="100.8px" preserveAspectRatio="xMinYMin meet" x="701.1" y="-1779.4"/>
<text xml:space="preserve" text-anchor="middle" x="751.5" y="-1657.35" font-family="Sans-Serif" font-size="11.00" fill="#e2e8f0">DynamoDB</text>
<text xml:space="preserve" text-anchor="middle" x="751.5" y="-1645.35" font-family="Sans-Serif" font-size="11.00" fill="#e2e8f0">connection</text>
<text xml:space="preserve" text-anchor="middle" x="751.5" y="-1633.35" font-family="Sans-Serif" font-size="11.00" fill="#e2e8f0">registry</text>
</g>
<!-- b850196319db49fb92fae9f781f66902&#45;&gt;8ef4418af32248b7b20e877088b10b81 -->
<g id="edge7" class="edge">
<title>b850196319db49fb92fae9f781f66902&#45;&gt;8ef4418af32248b7b20e877088b10b81</title>
<path fill="none" stroke="#7b8894" d="M540.7,-1728C540.7,-1728 689.79,-1728 689.79,-1728"/>
<polygon fill="#7b8894" stroke="#7b8894" points="689.79,-1731.5 699.79,-1728 689.79,-1724.5 689.79,-1731.5"/>
</g>
</g>
</svg>
